# xmcd
#
# Track frame offsets:
#	150
#	12926
#	25773
#	42172
#	54517
#	71335
#	93169
#	108006
#	125381
#	141600
#	156398
#	185982
#
# Disc length: 2727 seconds
#
# Revision: 0
# Processed by: cddbd v1.4PL0 Copyright (c) Steve Scherf et al.
# Submitted via: dBpowerAMP V4.0
#
DISCID=a00aa50c
DTITLE=Billy Keeble - Unchained Country
DYEAR=1900
DGENRE=Country
TTITLE0=A Good Woman Gone
TTITLE1=Shame On Me
TTITLE2=The Whole World Must Be Color Blind
TTITLE3=Wild Turkey and 7-Up
TTITLE4=Do These 2 Arms
TTITLE5=West Texas Morning
TTITLE6=The Road To Yesterday
TTITLE7=Back To My Honky Tonk Ways
TTITLE8=Please Baby Please
TTITLE9=Your Memory Still Takes Control
TTITLE10=I'll Be Walking In Your Sleep Tonight
TTITLE11=DATA
EXTD=
EXTT0=
EXTT1=
EXTT2=
EXTT3=
EXTT4=
EXTT5=
EXTT6=
EXTT7=
EXTT8=
EXTT9=
EXTT10=
EXTT11=
PLAYORDER=
